# xmcd CD database file
#
# Track frame offsets:
#	150
#	26356
#	59374
#	90110
#	126756
#	159885
#	193231
#	217097
#	245839
#	276490
#
# Disc length: 3852 seconds
#
# Revision: 0
# Processed by: cddbd v1.5.2PL0 Copyright (c) Steve Scherf et al.
# Submitted via: CDex 1.70beta2
#
DISCID=8c0f0a0a
DTITLE=Jean-Paul Brodbeck Group - Hang On Hippie
DYEAR=2009
DGENRE=Jazz
TTITLE0=One Glance Is Not Enough
TTITLE1=Your Street
TTITLE2=New Song
TTITLE3=Story Of A Day
TTITLE4=The Sneaker
TTITLE5=Wonder
TTITLE6=The Beginning
TTITLE7=Seventy-Four
TTITLE8=Wood Turns
TTITLE9=The Unknown Singer
EXTD=YEAR: 2009
EXTT0=
EXTT1=
EXTT2=
EXTT3=
EXTT4=
EXTT5=
EXTT6=
EXTT7=
EXTT8=
EXTT9=
PLAYORDER=
